<?xml version="1.0" encoding="utf-8"?>
<!-- Generator: Adobe Illustrator 24.1.0, SVG Export Plug-In . SVG Version: 6.00 Build 0)  -->
<svg version="1.1" id="Layer_1" xmlns="http://www.w3.org/2000/svg" xmlns:xlink="http://www.w3.org/1999/xlink" x="0px" y="0px"
	 viewBox="0 0 60 60" style="enable-background:new 0 0 60 60;" xml:space="preserve">
<style type="text/css">
	.st0{fill:#5AC2AD;}
</style>
<g>
	<path class="st0" d="M30,0.4C13.7,0.4,0.5,13.6,0.5,29.9c0,16.3,13.2,29.5,29.5,29.5s29.5-13.2,29.5-29.5
		C59.5,13.6,46.3,0.4,30,0.4z M30,56.7c-14.8,0-26.8-12-26.8-26.8S15.2,3.1,30,3.1c14.8,0,26.8,12,26.8,26.8S44.8,56.7,30,56.7z"/>
	<polygon class="st0" points="32.2,19.3 30,17.1 12.6,34.5 14.8,36.7 30,21.5 45.2,36.7 47.4,34.5 32.2,19.3 	"/>
</g>
</svg>
